<?xml version="1.0" standalone="no"?><!DOCTYPE svg PUBLIC "-//W3C//DTD SVG 1.1//EN" "http://www.w3.org/Graphics/SVG/1.1/DTD/svg11.dtd"><svg t="1525835866008" class="icon" style="" viewBox="0 0 1024 1024" version="1.1" xmlns="http://www.w3.org/2000/svg" p-id="1980" xmlns:xlink="http://www.w3.org/1999/xlink" width="64" height="64"><defs><style type="text/css"></style></defs><path d="M425.6 150.4c16 0 32 12.8 32 28.8v217.6c0 16-12.8 28.8-32 28.8h-217.6c-16 0-32-12.8-32-28.8v-217.6c0-16 12.8-28.8 32-28.8h217.6z m0-38.4h-217.6c-38.4 0-67.2 28.8-67.2 67.2v217.6c0 38.4 32 67.2 67.2 67.2h217.6c38.4 0 67.2-28.8 67.2-67.2v-217.6c0-38.4-28.8-67.2-67.2-67.2zM844.8 150.4c16 0 32 12.8 32 28.8v217.6c0 16-12.8 28.8-32 28.8h-217.6c-16 0-32-12.8-32-28.8v-217.6c0-16 12.8-28.8 32-28.8h217.6z m0-38.4h-217.6c-38.4 0-67.2 28.8-67.2 67.2v217.6c0 38.4 32 67.2 67.2 67.2h217.6c38.4 0 67.2-28.8 67.2-67.2v-217.6c0-38.4-32-67.2-67.2-67.2zM425.6 585.6c16 0 32 12.8 32 28.8v214.4c0 16-12.8 28.8-32 28.8h-217.6c-16 0-32-12.8-32-28.8v-214.4c0-16 12.8-28.8 32-28.8h217.6z m0-38.4h-217.6c-38.4 0-67.2 28.8-67.2 67.2v214.4c0 38.4 32 67.2 67.2 67.2h217.6c38.4 0 67.2-28.8 67.2-67.2v-214.4c0-35.2-28.8-67.2-67.2-67.2zM729.6 563.2c86.4 0 160 70.4 160 160 0 86.4-70.4 160-160 160-86.4 0-160-70.4-160-160 3.2-89.6 73.6-160 160-160z m0-38.4c-108.8 0-198.4 86.4-198.4 195.2 0 108.8 86.4 195.2 198.4 195.2s198.4-89.6 198.4-195.2-86.4-195.2-198.4-195.2z" p-id="1981" fill="#707070"></path></svg>